<?xml version="1.0" encoding="utf-8"?>
<!-- Generator: Adobe Illustrator 25.2.1, SVG Export Plug-In . SVG Version: 6.00 Build 0)  -->
<svg version="1.1" id="Capa_1" xmlns="http://www.w3.org/2000/svg" xmlns:xlink="http://www.w3.org/1999/xlink" x="0px" y="0px"
	 viewBox="0 0 512 512" style="enable-background:new 0 0 512 512;" xml:space="preserve">
<style type="text/css">
	.st0{fill:#9CDD05;}
	.st1{fill:#94C609;}
	.st2{fill:#83AA2E;}
	.st3{fill:#F37D79;}
	.st4{fill:#D86666;}
</style>
<g>
	<path class="st0" d="M401.5,321.4c-1.7-1.6-4.3-1.7-6.2-0.4c-22.8,16.4-35.7,67.2-23.4,92.5c1,2.1,3.4,3.2,5.6,2.6
		C420.4,405.4,434.2,351.2,401.5,321.4z"/>
	<path class="st1" d="M387.7,328.2c2.5-2.9,5-5.3,7.6-7.2c1.9-1.4,4.5-1.2,6.2,0.4c32.6,29.9,18.9,84-24,94.8
		c-2.3,0.6-4.6-0.5-5.6-2.6c-0.4-0.8-0.8-1.7-1.1-2.6C400.6,394.4,408.7,355.2,387.7,328.2z"/>
	<path class="st2" d="M174.4,212.3c-2.4-3.4-1.5-8.1,1.9-10.5c3.4-2.4,8.1-1.5,10.5,1.9c19.5,28.3,43.5,60.1,72.1,92.9l2.5-30.9
		c0.3-4.2,4-7.3,8.2-6.9c4.2,0.3,7.3,4,6.9,8.2l-3.7,45.2c66.9,73.4,145.6,137.3,235.1,184.2c3.7,1.9,5.1,6.5,3.2,10.2
		c-1.4,2.6-4,4.1-6.7,4.1c-1.2,0-2.4-0.3-3.5-0.9c-63.8-33.5-124.8-77-181.5-129.5c-5.9-2-32.1-10.2-68.7-8.8
		c-4.2,0.2-7.7-3.1-7.9-7.3c-0.2-4.2,3.1-7.7,7.3-7.8c18.7-0.7,34.8,0.9,47.4,3C252.3,314.8,210.9,265.3,174.4,212.3z"/>
	<path class="st0" d="M182.4,413.7c-30.1,1.8-57.2-13.4-72-37.3c-1.7-2.8-1.3-6.5,1.1-8.8c13-12.4,37.8-21.7,66.6-23.4
		s54.5,4.5,69,15.2c2.7,2,3.6,5.6,2.2,8.6C237.6,393.5,212.5,411.9,182.4,413.7z"/>
	<path class="st1" d="M229.2,367.9c1.4-3,0.5-6.6-2.2-8.6c-11.1-8.2-28.7-13.8-49.4-15.1c0.2,0,0.4,0,0.6,0
		c28.8-1.8,54.5,4.5,69,15.2c2.7,2,3.6,5.6,2.2,8.6c-11.8,25.5-36.9,44-66.9,45.8c-5.1,0.3-10,0.1-14.9-0.5
		C195.2,409.7,218.1,392,229.2,367.9z"/>
	<path class="st0" d="M141.3,231.9c9-2.4,17.5-7.1,24.5-14.2c5.1-5.1,8.7-11,11.1-17.2c6.6,0.9,13.6,0.5,20.5-1.5
		c9.6-2.8,17.8-8,24.2-14.7c12.2,1,22.6,4.6,28.9,9.6c1.4,1.1,1.8,3.1,1,4.8c-7.2,13.8-21.5,23.4-38.1,23.7
		c-11.5,0.2-22.1-4-30-11.2c2.5,10.4,1.1,21.7-4.6,31.7c-8.3,14.4-23.6,22.4-39.1,22c-1.8,0-3.4-1.4-3.7-3.2
		C134.5,254,136.3,243.1,141.3,231.9z"/>
	<path class="st1" d="M221.9,213c0.8-1.6,0.4-3.6-1-4.8c-5.4-4.4-13.9-7.6-24.1-9.1c0.2-0.1,0.4-0.1,0.7-0.2
		c9.6-2.8,17.8-8,24.2-14.7c12.2,1,22.6,4.6,28.9,9.6c1.4,1.1,1.8,3.1,1,4.8c-6.9,13.3-20.4,22.6-36.2,23.6
		C217.9,219.6,220.1,216.4,221.9,213z"/>
	<path class="st3" d="M3.8,99.8C6.5,95.3,31.1,55,75.3,51.6c4.3-0.2,8.6-0.2,12.8,0.2l1.1,0.1L88.8,53c-7,15.6-9,31.4-7.1,48.3
		l-0.9,0c-11.8,0.5-23.7,3.5-35.4,8.8l-0.4,0.2l-0.4-0.2c-10.8-5.7-22.4-6.8-35.5-3.2C5.1,108.1,1.6,103.6,3.8,99.8z"/>
	<path class="st4" d="M59.5,54.5c5-1.5,10.2-2.5,15.8-2.9c4.3-0.2,8.6-0.2,12.8,0.2l1.1,0.1L88.8,53c-7,15.6-9,31.4-7.1,48.3l-0.9,0
		c-9.3,0.4-18.7,2.4-28.1,5.9C51,88.9,53.2,71.2,59.5,54.5z"/>
	<path class="st3" d="M93.4,41C117.5,3.8,164.7,1.5,170,1.4c4.3-0.1,6.6,5.1,3.5,8.2c-9.4,9.7-14,20.4-14.2,32.7l0,0.4l-0.3,0.2
		c-13.6,10.2-23.7,22.6-29.9,36.7c-4.2,10.2-6.4,19.5-7.5,29.4l-1-0.4c-9-3.6-18.5-6-28.4-7.1c-3.7-0.3-7.5-0.4-11.3-0.2l-0.8,0
		C77.6,79.5,81.8,59.6,93.4,41z"/>
	<path class="st4" d="M101.5,103c-1.9-24.1,3.6-46.8,16.4-67.6c9.6-14.7,22.2-24.9,35-31.9c8.8-1.8,15.3-2.1,17.1-2.1
		c4.3-0.1,6.6,5.1,3.5,8.2c-9.4,9.7-14,20.4-14.2,32.7l0,0.4l-0.3,0.2c-13.6,10.2-23.7,22.6-29.9,36.7c-4.1,10-6.3,19.3-7.5,29.2
		c-0.3-0.1-0.7-0.1-1-0.2l0,0C114.4,106.2,108.1,104.3,101.5,103z"/>
	<path class="st3" d="M168.2,146.7c-13-17.7-29.1-30.5-47.7-38l-0.6-0.2c1.2-9.9,3.5-19.4,7.6-29.4c20.7-47.1,74.3-58.6,80.4-59.7
		c4.9-0.9,8.3,4.5,5.5,8.5c-21.5,31.1-7.9,59.4,14.6,90l-0.1,0c17,26.5,7.9,61.2-18.5,76.9c-3.9,2.3-8.2,4.2-12.8,5.5
		c-6.8,2-13.8,2.5-20.8,1.5l-1-0.1l0.4-1C181.7,183.8,178.9,162.6,168.2,146.7z"/>
	<path class="st4" d="M198.1,131.7L198.1,131.7c-22.8-31.4-38.5-61.8-17.1-94.3c1.3-1.9,1.3-4.4,0-6.4c-0.5-0.8-1.2-1.5-2-1.9
		c14.3-6.7,26.3-9.3,28.9-9.8c4.9-0.9,8.3,4.5,5.5,8.5c-21.5,31.1-7.9,59.4,14.6,90l-0.1,0c17,26.5,7.9,61.2-18.5,76.9
		c-3.9,2.3-8.2,4.2-12.8,5.5c-0.9,0.3-1.9,0.5-2.8,0.7C210.3,182.3,212.3,154,198.1,131.7z"/>
	<path class="st3" d="M1.3,141.7c3.9-4.7,39.8-46.3,91-41.8c21.7,2.4,52.7,12.3,77.3,45.9c13.4,19.9,16.5,52.3-4.1,73
		c-3.4,3.4-7.1,6.2-11,8.6c-26.3,15.6-61.2,7-76.3-20.7l-0.1,0.1c-15.3-34.4-35-59.9-71.9-56.1C1.2,151.1-1.9,145.5,1.3,141.7z"/>
	<path class="st4" d="M141.1,162.6c-27.9-38-75.3-57.8-121.1-38.7c16.1-12.6,41.4-26.7,72.3-24c21.7,2.4,52.7,12.3,77.3,45.9
		c13.4,19.9,16.5,52.3-4.1,73c-3.4,3.4-7.1,6.2-11,8.6c-4.9,2.9-10.1,5-15.5,6.2C157.4,212.8,154.1,181.9,141.1,162.6z"/>
</g>
</svg>
